<!DOCTYPE svg PUBLIC "-//W3C//DTD SVG 1.1//EN" "http://www.w3.org/Graphics/SVG/1.1/DTD/svg11.dtd">

<!-- Uploaded to: SVG Repo, www.svgrepo.com, Transformed by: SVG Repo Mixer Tools -->
<svg height="197px" width="197px" version="1.1" id="Capa_1" xmlns="http://www.w3.org/2000/svg" xmlns:xlink="http://www.w3.org/1999/xlink" viewBox="0 0 230.084 230.084" xml:space="preserve" fill="#454545" stroke="#454545" stroke-width="6.90252">

<g id="SVGRepo_bgCarrier" stroke-width="0"/>

<g id="SVGRepo_tracerCarrier" stroke-linecap="round" stroke-linejoin="round" stroke="#CCCCCC" stroke-width="0.460168"/>

<g id="SVGRepo_iconCarrier"> <path style="fill:#4f4f4f;" d="M212.542,166.088l-69-21.23c0,15.825,0,30.285,0,41.012l31.188,17.273v26.941l-59.688-18.366 l-59.689,18.366v-26.941l31.189-17.274c0-10.727,0-25.186,0-41.011l-69,21.23V122.08l69-38.215c0-30.704,0-55.229,0-55.365 c0-15.74,12.76-28.5,28.5-28.5c15.738,0,28.5,12.76,28.5,28.5c0,0.136,0,24.661,0,55.365l69,38.215V166.088z"/> </g>

</svg>